<?xml version="1.0" encoding="UTF-8"?>
<svg id="Layer_1" data-name="Layer 1" xmlns="http://www.w3.org/2000/svg" version="1.1" xmlns:xlink="http://www.w3.org/1999/xlink" viewBox="0 0 600 600">
  <defs>
    <style>
      .cls-1 {
        fill: url(#linear-gradient);
      }

      .cls-1, .cls-2, .cls-3, .cls-4, .cls-5, .cls-6 {
        stroke-width: 0px;
      }

      .cls-2 {
        fill: url(#linear-gradient-5);
      }

      .cls-3 {
        fill: #efc462;
      }

      .cls-4 {
        fill: url(#linear-gradient-2);
      }

      .cls-5 {
        fill: url(#linear-gradient-3);
      }

      .cls-6 {
        fill: url(#linear-gradient-4);
      }
    </style>
    <linearGradient id="linear-gradient" x1="585.2" y1="286.8" x2="378.4" y2="122.1" gradientTransform="translate(0 602) scale(1 -1)" gradientUnits="userSpaceOnUse">
      <stop offset="0" stop-color="#76c8b6"/>
      <stop offset="1" stop-color="#469993"/>
    </linearGradient>
    <linearGradient id="linear-gradient-2" x1="431" y1="314.3" x2="365.1" y2="182.8" xlink:href="#linear-gradient"/>
    <linearGradient id="linear-gradient-3" x1="300" y1="373.3" x2="300.3" y2="77.8" gradientTransform="translate(0 602) scale(1 -1)" gradientUnits="userSpaceOnUse">
      <stop offset="0" stop-color="#ecac56"/>
      <stop offset=".7" stop-color="#eb8966"/>
    </linearGradient>
    <linearGradient id="linear-gradient-4" x1="-32.7" y1="286.8" x2="-239.6" y2="122.1" gradientTransform="translate(-17.9 602) rotate(-180)" xlink:href="#linear-gradient"/>
    <linearGradient id="linear-gradient-5" x1="-187" y1="314.3" x2="-252.9" y2="182.8" gradientTransform="translate(-17.9 602) rotate(-180)" xlink:href="#linear-gradient"/>
  </defs>
  <circle class="cls-3" cx="299.6" cy="112.8" r="14.2"/>
  <circle class="cls-3" cx="163" cy="163.7" r="12.7"/>
  <circle class="cls-3" cx="434.7" cy="163.7" r="12.7"/>
  <path class="cls-1" d="M588.9,330.5s-55.3,177.8-264.4,168.7c66.2-18.3,106.6-57.9,131.1-101.2,12.7-22.4,21.1-45.9,26.8-67.9,59-6.8,106.5.4,106.5.4Z"/>
  <path class="cls-4" d="M464.5,332.5c-5.6,26-15.4,53-32.1,77.2-21.1,30.6-53.3,56.9-101.6,71.8,11-11.5,20.3-23.1,28.1-34.6,19.3-28.6,29.4-57.1,33.2-84.2.5-3.5.9-7,1.2-10.5.1-1.5.2-2.9.3-4.4,1.5-26.3-2.6-51.3-9.5-73.9-1.3-4.4-2.8-8.7-4.4-12.9,40.9-38.4,85.8-52.9,85.8-52.9,0,0,2.2,10.2,3.8,26.6.7,6.8,1.2,14.8,1.5,23.5.6,21.2-.5,47.3-6.2,74.3Z"/>
  <path class="cls-5" d="M372.5,361.8c-2.2,14.1-6.1,28.5-12.2,43.1-8.3,19.9-20.5,40.1-37.7,60.3-.9,1-1.7,2-2.5,2.9-.3.3-.6.7-.9,1-3.6,4.1-7.5,8.2-11.6,12.4-2.4,2.5-5,5-7.6,7.4-.6-.6-1.2-1.2-1.8-1.7-2.2-2.1-4.4-4.2-6.4-6.4h0c-3.8-3.9-7.4-7.8-10.8-11.7-1.2-1.3-2.3-2.6-3.4-3.9-129.3-152,22.5-306.9,22.5-306.9,0,0,4.5,4.6,11.3,12.9,2.4,2.9,5,6.3,7.9,10.1,15.2,20.5,35.8,53.3,47.2,93.2.9,3.3,1.8,6.6,2.6,10,5.6,23.8,7.8,49.9,3.5,77.1h0Z"/>
  <path class="cls-6" d="M11.1,330.5s55.3,177.8,264.4,168.7c-66.2-18.3-106.6-57.9-131.1-101.2-12.7-22.4-21.1-45.9-26.8-67.9-59-6.9-106.5.4-106.5.4Z"/>
  <path class="cls-2" d="M135.5,332.5c5.6,26,15.4,53,32.1,77.2,21.1,30.6,53.3,56.9,101.6,71.8-11-11.5-20.3-23.1-28.1-34.6-19.3-28.6-29.4-57.1-33.2-84.2-.5-3.5-.9-7-1.2-10.5-.1-1.5-.2-2.9-.3-4.4-1.5-26.3,2.6-51.3,9.5-73.9,1.3-4.4,2.8-8.7,4.4-12.9-40.9-38.4-85.8-52.9-85.8-52.9,0,0-2.2,10.2-3.8,26.6-.7,6.8-1.2,14.8-1.5,23.5-.6,21.2.5,47.3,6.2,74.3Z"/>
</svg>