<?xml version="1.0" encoding="UTF-8"?>
<svg id="Layer_1" xmlns="http://www.w3.org/2000/svg" version="1.1" xmlns:xlink="http://www.w3.org/1999/xlink" viewBox="0 0 530 130">
  <!-- Generator: Adobe Illustrator 29.5.1, SVG Export Plug-In . SVG Version: 2.1.0 Build 141)  -->
  <defs>
    <style>
      .st0 {
        fill: url(#linear-gradient2);
      }

      .st1 {
        fill: url(#linear-gradient1);
      }

      .st2 {
        fill: #3e989b;
      }

      .st3 {
        fill: url(#linear-gradient4);
      }

      .st4 {
        fill: url(#linear-gradient3);
      }

      .st5 {
        fill: url(#linear-gradient);
      }

      .st6 {
        fill: #efc462;
      }
    </style>
    <linearGradient id="linear-gradient" x1="134.44" y1="69.71" x2="86.01" y2="108.28" gradientUnits="userSpaceOnUse">
      <stop offset="0" stop-color="#76c8b6"/>
      <stop offset="1" stop-color="#469993"/>
    </linearGradient>
    <linearGradient id="linear-gradient1" x1="98.32" y1="63.27" x2="82.89" y2="94.08" xlink:href="#linear-gradient"/>
    <linearGradient id="linear-gradient2" x1="67.63" y1="49.46" x2="67.71" y2="118.67" gradientUnits="userSpaceOnUse">
      <stop offset="0" stop-color="#ecac56"/>
      <stop offset=".67" stop-color="#eb8966"/>
    </linearGradient>
    <linearGradient id="linear-gradient3" x1="-20.78" x2="-69.21" gradientTransform="translate(-19.91) rotate(-180) scale(1 -1)" xlink:href="#linear-gradient"/>
    <linearGradient id="linear-gradient4" x1="-56.9" y1="63.27" x2="-72.33" y2="94.08" gradientTransform="translate(-19.91) rotate(-180) scale(1 -1)" xlink:href="#linear-gradient"/>
  </defs>
  <path class="st2" d="M172.62,42.78c.57.98,1.2,2.18,1.9,3.6.7,1.42,1.41,2.91,2.13,4.47.72,1.56,1.44,3.15,2.15,4.76.71,1.61,1.36,3.1,1.95,4.47.59-1.37,1.24-2.86,1.93-4.47.7-1.61,1.41-3.2,2.13-4.76.72-1.56,1.43-3.05,2.13-4.47.7-1.42,1.33-2.62,1.9-3.6h4.39c.24,1.96.46,4.04.67,6.25.21,2.2.4,4.46.57,6.77s.33,4.63.47,6.96c.14,2.33.27,4.61.38,6.83h-4.8c-.1-3.12-.23-6.33-.37-9.63-.14-3.3-.36-6.5-.65-9.59-.28.59-.62,1.3-1.01,2.13-.39.83-.8,1.72-1.24,2.69-.44.97-.88,1.97-1.33,3-.45,1.03-.89,2.03-1.32,3-.43.97-.82,1.87-1.18,2.71-.36.84-.67,1.55-.93,2.15h-3.64c-.26-.59-.57-1.32-.93-2.17-.36-.85-.75-1.76-1.18-2.73-.43-.97-.86-1.97-1.32-3-.45-1.03-.9-2.02-1.33-2.98-.44-.95-.85-1.85-1.24-2.69-.39-.84-.72-1.54-1.01-2.11-.29,3.09-.51,6.29-.65,9.59-.14,3.3-.27,6.51-.37,9.63h-4.8c.11-2.22.23-4.51.37-6.89.14-2.37.3-4.73.47-7.06.17-2.33.36-4.6.57-6.79.21-2.19.43-4.22.67-6.07h4.51Z"/>
  <path class="st2" d="M225.95,56.17c0,2.3-.34,4.32-1.03,6.07-.68,1.75-1.61,3.22-2.79,4.39-1.17,1.17-2.55,2.06-4.12,2.65-1.57.59-3.25.89-5.03.89s-3.46-.3-5.05-.89c-1.59-.59-2.97-1.48-4.14-2.65-1.17-1.17-2.11-2.64-2.8-4.39-.7-1.75-1.04-3.78-1.04-6.07s.35-4.31,1.04-6.05c.7-1.74,1.64-3.21,2.84-4.39s2.59-2.08,4.16-2.67c1.57-.59,3.24-.89,4.99-.89s3.42.3,4.99.89c1.57.59,2.95,1.48,4.12,2.67,1.17,1.19,2.11,2.65,2.8,4.39.7,1.74,1.04,3.76,1.04,6.05ZM205.02,56.17c0,1.47.18,2.8.54,4,.36,1.2.88,2.22,1.57,3.06.68.84,1.52,1.49,2.5,1.95.98.46,2.09.7,3.33.7s2.31-.23,3.29-.7c.98-.46,1.81-1.12,2.5-1.95.68-.84,1.21-1.86,1.57-3.06.36-1.2.54-2.53.54-4s-.18-2.81-.54-4c-.36-1.2-.88-2.22-1.57-3.06-.68-.84-1.52-1.49-2.5-1.95-.98-.46-2.08-.7-3.29-.7s-2.35.23-3.33.7c-.98.46-1.81,1.12-2.5,1.97-.68.85-1.21,1.87-1.57,3.06-.36,1.19-.54,2.51-.54,3.99ZM217.87,37.8l-7.97,3.69-1.5-2.74,7.6-4.51,1.87,3.56Z"/>
  <path class="st2" d="M240.23,42.51c3.87,0,6.83.71,8.88,2.13,2.05,1.42,3.08,3.59,3.08,6.5,0,3.64-1.79,6.1-5.38,7.39.49.59,1.04,1.32,1.66,2.17.62.85,1.25,1.77,1.9,2.77.64.99,1.26,2.01,1.86,3.06.59,1.05,1.12,2.07,1.59,3.08h-5.46c-.49-.93-1.02-1.86-1.59-2.8-.57-.94-1.14-1.86-1.72-2.75s-1.15-1.73-1.72-2.51c-.57-.79-1.1-1.49-1.59-2.11-.36.03-.67.04-.93.04h-3.1v10.14h-4.87v-26.42c1.19-.26,2.45-.43,3.79-.52,1.34-.09,2.54-.14,3.6-.14ZM240.57,46.73c-1.03,0-1.99.04-2.86.12v8.67h2.13c1.19,0,2.23-.06,3.13-.19.9-.13,1.66-.36,2.26-.7.61-.33,1.06-.79,1.37-1.35.31-.57.46-1.29.46-2.17,0-.83-.15-1.52-.46-2.09s-.75-1.02-1.33-1.35c-.58-.33-1.27-.57-2.07-.72-.8-.14-1.68-.21-2.63-.21Z"/>
  <path class="st2" d="M282.98,56.17c0,2.3-.34,4.32-1.03,6.07-.68,1.75-1.61,3.22-2.79,4.39-1.17,1.17-2.55,2.06-4.12,2.65-1.57.59-3.25.89-5.03.89s-3.46-.3-5.05-.89c-1.59-.59-2.97-1.48-4.14-2.65-1.17-1.17-2.11-2.64-2.8-4.39-.7-1.75-1.04-3.78-1.04-6.07s.35-4.31,1.04-6.05c.7-1.74,1.64-3.21,2.84-4.39s2.59-2.08,4.16-2.67c1.57-.59,3.24-.89,4.99-.89s3.42.3,4.99.89c1.57.59,2.95,1.48,4.12,2.67,1.17,1.19,2.11,2.65,2.8,4.39.7,1.74,1.04,3.76,1.04,6.05ZM262.05,56.17c0,1.47.18,2.8.54,4,.36,1.2.88,2.22,1.57,3.06.68.84,1.52,1.49,2.5,1.95.98.46,2.09.7,3.33.7s2.31-.23,3.29-.7c.98-.46,1.81-1.12,2.5-1.95.68-.84,1.21-1.86,1.57-3.06.36-1.2.54-2.53.54-4s-.18-2.81-.54-4c-.36-1.2-.88-2.22-1.57-3.06-.68-.84-1.52-1.49-2.5-1.95-.98-.46-2.08-.7-3.29-.7s-2.35.23-3.33.7c-.98.46-1.81,1.12-2.5,1.97-.68.85-1.21,1.87-1.57,3.06-.36,1.19-.54,2.51-.54,3.99Z"/>
  <path class="st2" d="M301.05,70.17c-2.01,0-3.82-.31-5.42-.93-1.6-.62-2.95-1.53-4.06-2.73-1.11-1.2-1.96-2.66-2.55-4.39-.59-1.73-.89-3.71-.89-5.96s.34-4.23,1.03-5.96c.68-1.73,1.62-3.19,2.8-4.39,1.19-1.2,2.58-2.11,4.18-2.73,1.6-.62,3.31-.93,5.15-.93,1.11,0,2.11.08,3.02.25.9.17,1.69.36,2.36.56.67.21,1.22.43,1.66.66.44.23.75.4.93.5l-1.43,3.98c-.62-.39-1.5-.75-2.65-1.1-1.15-.35-2.39-.52-3.73-.52-1.16,0-2.24.2-3.25.6-1.01.4-1.88,1-2.61,1.8-.73.8-1.31,1.81-1.72,3.02-.41,1.21-.62,2.62-.62,4.22,0,1.42.16,2.72.48,3.91.32,1.19.82,2.21,1.49,3.08.67.86,1.52,1.53,2.55,2.01,1.03.48,2.27.72,3.71.72,1.73,0,3.13-.17,4.22-.52,1.08-.35,1.92-.68,2.51-.99l1.32,3.99c-.31.21-.73.41-1.26.62-.53.21-1.15.41-1.88.6-.72.19-1.53.35-2.44.46-.9.12-1.87.17-2.9.17Z"/>
  <path class="st2" d="M332.77,46.38c-.85.93-1.88,2.13-3.1,3.62-1.21,1.48-2.46,3.09-3.75,4.84-1.29,1.74-2.56,3.53-3.81,5.38-1.25,1.84-2.35,3.59-3.31,5.24h14.39v4.14h-20.27v-3.06c.52-.95,1.12-1.99,1.8-3.11.68-1.12,1.41-2.28,2.19-3.46.77-1.19,1.58-2.38,2.42-3.6.84-1.21,1.67-2.38,2.5-3.5.83-1.12,1.63-2.19,2.42-3.21.79-1.02,1.53-1.93,2.22-2.73h-12.88v-4.14h19.19v3.6Z"/>
  <path class="st2" d="M361.96,42.78c.57.98,1.2,2.18,1.9,3.6.7,1.42,1.41,2.91,2.13,4.47.72,1.56,1.44,3.15,2.15,4.76.71,1.61,1.36,3.1,1.95,4.47.59-1.37,1.24-2.86,1.93-4.47s1.41-3.2,2.13-4.76c.72-1.56,1.43-3.05,2.13-4.47.7-1.42,1.33-2.62,1.9-3.6h4.39c.24,1.96.46,4.04.67,6.25.21,2.2.4,4.46.57,6.77s.33,4.63.47,6.96c.14,2.33.27,4.61.37,6.83h-4.8c-.11-3.12-.23-6.33-.38-9.63-.14-3.3-.36-6.5-.65-9.59-.28.59-.62,1.3-1.01,2.13-.39.83-.8,1.72-1.24,2.69-.44.97-.88,1.97-1.33,3-.45,1.03-.89,2.03-1.32,3-.43.97-.82,1.87-1.18,2.71s-.67,1.55-.93,2.15h-3.64c-.26-.59-.57-1.32-.93-2.17s-.75-1.76-1.18-2.73c-.43-.97-.86-1.97-1.32-3-.45-1.03-.9-2.02-1.33-2.98-.44-.95-.85-1.85-1.24-2.69-.39-.84-.72-1.54-1.01-2.11-.29,3.09-.51,6.29-.65,9.59-.14,3.3-.27,6.51-.37,9.63h-4.8c.11-2.22.23-4.51.37-6.89.14-2.37.3-4.73.47-7.06.17-2.33.36-4.6.57-6.79.21-2.19.43-4.22.67-6.07h4.51Z"/>
  <path class="st2" d="M391.03,69.59v-26.81h17.22v4.14h-12.34v6.62h10.99v4.06h-10.99v7.85h13.27v4.14h-18.14Z"/>
  <path class="st2" d="M437.92,56.17c0,2.32-.36,4.34-1.08,6.05-.72,1.72-1.75,3.15-3.08,4.29-1.33,1.15-2.93,2-4.8,2.55-1.87.55-3.94.83-6.21.83-1.08,0-2.31-.05-3.68-.14-1.37-.09-2.67-.28-3.91-.56v-26.04c1.24-.28,2.55-.46,3.95-.54s2.63-.12,3.71-.12c2.24,0,4.29.27,6.15.79s3.45,1.35,4.78,2.48c1.33,1.12,2.35,2.54,3.08,4.26.72,1.72,1.08,3.76,1.08,6.13ZM420.05,65.57c.28.03.66.05,1.12.06.46.01,1.1.02,1.9.02,3.28,0,5.72-.83,7.33-2.5,1.61-1.66,2.42-3.99,2.42-6.98s-.79-5.38-2.36-7c-1.57-1.63-4.01-2.44-7.31-2.44-1.44,0-2.48.04-3.1.12v18.73Z"/>
  <path class="st2" d="M444.73,42.78h4.87v26.81h-4.87v-26.81Z"/>
  <path class="st2" d="M469.42,70.17c-2.01,0-3.82-.31-5.42-.93-1.6-.62-2.95-1.53-4.06-2.73-1.11-1.2-1.96-2.66-2.55-4.39-.59-1.73-.89-3.71-.89-5.96s.34-4.23,1.03-5.96c.68-1.73,1.62-3.19,2.8-4.39,1.19-1.2,2.58-2.11,4.18-2.73,1.6-.62,3.31-.93,5.15-.93,1.11,0,2.11.08,3.02.25.9.17,1.69.36,2.36.56.67.21,1.22.43,1.66.66.44.23.75.4.93.5l-1.43,3.98c-.62-.39-1.5-.75-2.65-1.1s-2.39-.52-3.73-.52c-1.16,0-2.24.2-3.25.6-1.01.4-1.88,1-2.61,1.8-.73.8-1.31,1.81-1.72,3.02-.41,1.21-.62,2.62-.62,4.22,0,1.42.16,2.72.48,3.91.32,1.19.82,2.21,1.49,3.08.67.86,1.52,1.53,2.55,2.01,1.03.48,2.27.72,3.71.72,1.73,0,3.13-.17,4.22-.52,1.08-.35,1.92-.68,2.52-.99l1.32,3.99c-.31.21-.73.41-1.26.62-.53.21-1.15.41-1.88.6s-1.53.35-2.44.46c-.9.12-1.87.17-2.9.17Z"/>
  <path class="st2" d="M502.96,69.59c-.36-1.06-.74-2.1-1.13-3.13-.39-1.03-.76-2.09-1.12-3.17h-11.33c-.36,1.08-.73,2.15-1.11,3.19-.37,1.05-.74,2.08-1.1,3.11h-5.07c1.01-2.86,1.96-5.51,2.86-7.93s1.79-4.72,2.65-6.89c.86-2.17,1.72-4.23,2.57-6.19.85-1.96,1.73-3.89,2.63-5.8h4.65c.9,1.91,1.78,3.84,2.63,5.8.85,1.96,1.71,4.02,2.57,6.19.86,2.17,1.75,4.46,2.67,6.89.91,2.42,1.88,5.07,2.88,7.93h-5.26ZM495.05,47.97c-.59,1.37-1.27,3.03-2.03,4.99-.76,1.96-1.55,4.09-2.38,6.38h8.82c-.83-2.3-1.62-4.44-2.4-6.42-.77-1.99-1.44-3.64-2.01-4.95Z"/>
  <path class="st2" d="M530,65.38v4.22h-16.94v-26.81h4.87v22.59h12.07Z"/>
  <path class="st2" d="M181.71,90.61c.44-.12,1.02-.26,1.76-.41s1.64-.23,2.71-.23c.89,0,1.63.13,2.22.38s1.07.62,1.42,1.09c.35.47.61,1.04.76,1.7.15.66.23,1.39.23,2.19v6.52h-1.47v-6.05c0-.83-.06-1.53-.17-2.1-.11-.57-.3-1.04-.56-1.4-.26-.36-.61-.62-1.04-.78s-.97-.24-1.61-.24c-.69,0-1.29.04-1.79.11-.5.08-.83.14-.98.2v10.25h-1.47v-11.26Z"/>
  <path class="st2" d="M205.8,96.05c0,.92-.13,1.75-.4,2.51s-.63,1.39-1.11,1.92-1.03.94-1.68,1.23c-.65.29-1.36.44-2.14.44s-1.5-.15-2.14-.44c-.65-.29-1.21-.7-1.68-1.23-.47-.53-.84-1.17-1.11-1.92-.26-.75-.4-1.59-.4-2.51s.13-1.75.4-2.51c.26-.75.63-1.4,1.11-1.93.47-.53,1.03-.95,1.68-1.24.65-.29,1.36-.44,2.14-.44s1.5.15,2.14.44c.65.29,1.21.71,1.68,1.24.47.53.84,1.18,1.11,1.93.26.75.4,1.59.4,2.51ZM204.24,96.05c0-1.46-.34-2.62-1.02-3.49-.68-.87-1.59-1.3-2.75-1.3s-2.08.43-2.75,1.3c-.68.87-1.02,2.03-1.02,3.49s.34,2.62,1.02,3.48c.68.86,1.59,1.29,2.75,1.29s2.08-.43,2.75-1.29c.68-.86,1.02-2.02,1.02-3.48ZM201.67,85.37l-2.84,3.36-.88-.65,2.69-3.66,1.04.95ZM205.21,85.37l-2.84,3.36-.88-.65,2.69-3.66,1.04.95Z"/>
  <path class="st2" d="M211.75,86.68c0,.35-.11.62-.32.82-.21.2-.47.3-.77.3s-.56-.1-.77-.3c-.21-.2-.32-.48-.32-.82s.1-.62.32-.82c.21-.2.47-.3.77-.3s.56.1.77.3c.21.2.32.48.32.82ZM211.41,101.87h-1.47v-11.67h1.47v11.67Z"/>
  <path class="st2" d="M223.74,96.3c0-1.02.15-1.91.44-2.67.29-.76.68-1.4,1.15-1.91.47-.51,1.02-.89,1.63-1.14.61-.25,1.24-.37,1.88-.37,1.43,0,2.57.47,3.42,1.4.85.93,1.28,2.37,1.28,4.31,0,.12,0,.24-.01.36s-.02.23-.03.34h-8.19c.05,1.43.4,2.53,1.06,3.29.66.77,1.72,1.15,3.16,1.15.8,0,1.43-.08,1.9-.23s.8-.28,1.02-.38l.27,1.26c-.21.12-.61.26-1.18.43-.58.17-1.26.25-2.04.25-1.02,0-1.9-.15-2.62-.45-.72-.3-1.32-.72-1.78-1.26-.47-.54-.81-1.18-1.02-1.93-.21-.75-.32-1.56-.32-2.45ZM232.02,95.37c-.03-1.22-.32-2.17-.86-2.84s-1.31-1.02-2.3-1.02c-.53,0-1,.11-1.41.32-.41.21-.78.49-1.08.85-.31.35-.55.76-.72,1.23-.17.47-.27.96-.3,1.47h6.68Z"/>
  <path class="st2" d="M245.31,100.79c-.09.08-.23.16-.41.26-.18.1-.4.2-.67.3-.26.11-.56.19-.9.26-.34.07-.72.1-1.14.1-.68,0-1.33-.1-1.96-.32-.63-.21-1.18-.54-1.66-.99-.47-.45-.85-1.03-1.14-1.75-.29-.71-.43-1.58-.43-2.61,0-.83.13-1.59.38-2.3.26-.71.62-1.32,1.09-1.84.47-.52,1.05-.93,1.74-1.22.68-.29,1.46-.44,2.31-.44,1.08,0,1.95.07,2.61.21.65.14,1.19.28,1.61.42v10.65c0,1.75-.45,2.99-1.35,3.74-.9.75-2.26,1.12-4.08,1.12-.75,0-1.43-.06-2.04-.17-.61-.11-1.13-.24-1.57-.39l.29-1.33c.36.17.85.31,1.48.43.62.12,1.25.18,1.88.18,1.38,0,2.39-.27,3.01-.8.62-.53.94-1.45.94-2.74v-.77ZM245.29,91.9c-.26-.08-.59-.15-.99-.21-.41-.07-.99-.1-1.74-.1-.63,0-1.19.11-1.68.33-.49.22-.91.53-1.25.93-.35.4-.61.87-.79,1.42-.18.55-.27,1.16-.27,1.82,0,.77.1,1.43.32,1.98.21.55.49,1,.82,1.34s.73.6,1.16.76c.44.16.88.24,1.33.24.66,0,1.27-.1,1.82-.29.55-.2.97-.42,1.28-.68v-7.52Z"/>
  <path class="st2" d="M249.94,96.3c0-1.02.15-1.91.44-2.67.29-.76.68-1.4,1.15-1.91.47-.51,1.02-.89,1.63-1.14.61-.25,1.24-.37,1.88-.37,1.43,0,2.57.47,3.42,1.4.85.93,1.28,2.37,1.28,4.31,0,.12,0,.24-.01.36s-.02.23-.03.34h-8.19c.05,1.43.4,2.53,1.06,3.29.66.77,1.72,1.15,3.16,1.15.8,0,1.43-.08,1.9-.23s.8-.28,1.02-.38l.27,1.26c-.21.12-.61.26-1.18.43-.58.17-1.26.25-2.04.25-1.02,0-1.9-.15-2.62-.45-.72-.3-1.32-.72-1.78-1.26-.47-.54-.81-1.18-1.02-1.93-.21-.75-.32-1.56-.32-2.45ZM258.22,95.37c-.03-1.22-.32-2.17-.86-2.84s-1.31-1.02-2.3-1.02c-.53,0-1,.11-1.41.32-.41.21-.78.49-1.08.85-.31.35-.55.76-.72,1.23-.17.47-.27.96-.3,1.47h6.68ZM258.13,85.85l-3.86,3.14-.74-.86,3.57-3.43,1.04,1.15Z"/>
  <path class="st2" d="M267.21,101.1c.84,0,1.54-.14,2.09-.42.55-.28.82-.75.82-1.41,0-.32-.05-.59-.15-.81-.1-.23-.26-.43-.49-.61s-.52-.35-.89-.52-.82-.36-1.37-.59c-.44-.18-.85-.36-1.24-.55-.39-.19-.74-.41-1.04-.65-.3-.25-.54-.55-.72-.89-.18-.35-.27-.77-.27-1.26,0-.95.36-1.72,1.07-2.3s1.7-.88,2.95-.88c.8,0,1.46.07,1.97.2s.88.26,1.09.36l-.34,1.31c-.18-.09-.49-.21-.91-.36-.43-.15-1.06-.23-1.88-.23-.33,0-.64.03-.94.1-.29.07-.55.17-.78.32-.23.14-.41.32-.54.54s-.2.49-.2.8.06.59.18.81c.12.23.3.43.53.6.23.17.52.33.86.48s.73.31,1.16.49c.45.18.88.36,1.3.55.41.19.78.41,1.09.68.32.26.57.58.77.95.2.37.29.83.29,1.39,0,1.05-.4,1.85-1.18,2.39s-1.87.81-3.24.81c-1.02,0-1.81-.09-2.35-.26-.54-.17-.9-.31-1.08-.4l.38-1.33s.14.08.29.15c.15.07.35.14.61.23.26.08.56.15.91.21.35.06.76.09,1.23.09Z"/>
  <path class="st2" d="M284.54,91.67c-.35.39-.81.93-1.36,1.62-.56.69-1.15,1.46-1.78,2.32-.63.85-1.26,1.74-1.87,2.66-.62.93-1.16,1.8-1.63,2.63h6.85v1.24h-8.53v-1.06c.39-.74.87-1.55,1.45-2.44.58-.89,1.17-1.77,1.8-2.63.62-.86,1.23-1.67,1.82-2.43.59-.76,1.08-1.38,1.48-1.87h-6.21v-1.24h7.99v1.2Z"/>
  <path class="st2" d="M291.08,101.1c.84,0,1.54-.14,2.09-.42.55-.28.82-.75.82-1.41,0-.32-.05-.59-.15-.81-.1-.23-.26-.43-.49-.61s-.52-.35-.89-.52-.82-.36-1.37-.59c-.44-.18-.85-.36-1.24-.55-.39-.19-.74-.41-1.04-.65-.3-.25-.54-.55-.72-.89-.18-.35-.27-.77-.27-1.26,0-.95.36-1.72,1.07-2.3s1.7-.88,2.95-.88c.8,0,1.46.07,1.97.2s.88.26,1.09.36l-.34,1.31c-.18-.09-.49-.21-.91-.36-.43-.15-1.06-.23-1.88-.23-.33,0-.64.03-.94.1-.29.07-.55.17-.78.32-.23.14-.41.32-.54.54s-.2.49-.2.8.06.59.18.81c.12.23.3.43.53.6.23.17.52.33.86.48s.73.31,1.16.49c.45.18.88.36,1.3.55.41.19.78.41,1.09.68.32.26.57.58.77.95.2.37.29.83.29,1.39,0,1.05-.4,1.85-1.18,2.39s-1.87.81-3.24.81c-1.02,0-1.81-.09-2.35-.26-.54-.17-.9-.31-1.08-.4l.38-1.33s.14.08.29.15c.15.07.35.14.61.23.26.08.56.15.91.21.35.06.76.09,1.23.09Z"/>
  <path class="st2" d="M299.51,96.3c0-1.02.15-1.91.44-2.67.29-.76.68-1.4,1.15-1.91.47-.51,1.02-.89,1.63-1.14.61-.25,1.24-.37,1.88-.37,1.43,0,2.57.47,3.42,1.4.85.93,1.28,2.37,1.28,4.31,0,.12,0,.24-.01.36s-.02.23-.03.34h-8.19c.05,1.43.4,2.53,1.06,3.29.66.77,1.72,1.15,3.16,1.15.8,0,1.43-.08,1.9-.23s.8-.28,1.02-.38l.27,1.26c-.21.12-.61.26-1.18.43-.58.17-1.26.25-2.04.25-1.02,0-1.9-.15-2.62-.45-.72-.3-1.32-.72-1.78-1.26-.47-.54-.81-1.18-1.02-1.93-.21-.75-.32-1.56-.32-2.45ZM307.79,95.37c-.03-1.22-.32-2.17-.86-2.84s-1.31-1.02-2.3-1.02c-.53,0-1,.11-1.41.32-.41.21-.78.49-1.08.85-.31.35-.55.76-.72,1.23-.17.47-.27.96-.3,1.47h6.68ZM307.7,85.85l-3.86,3.14-.74-.86,3.57-3.43,1.04,1.15Z"/>
  <path class="st2" d="M320.58,100.79c-.09.08-.23.16-.41.26-.18.1-.4.2-.67.3-.26.11-.56.19-.9.26-.34.07-.72.1-1.14.1-.68,0-1.33-.1-1.96-.32-.63-.21-1.18-.54-1.66-.99-.47-.45-.85-1.03-1.14-1.75-.29-.71-.43-1.58-.43-2.61,0-.83.13-1.59.38-2.3.26-.71.62-1.32,1.09-1.84.47-.52,1.05-.93,1.74-1.22.68-.29,1.46-.44,2.31-.44,1.08,0,1.95.07,2.61.21.65.14,1.19.28,1.61.42v10.65c0,1.75-.45,2.99-1.35,3.74-.9.75-2.26,1.12-4.08,1.12-.75,0-1.43-.06-2.04-.17-.61-.11-1.13-.24-1.57-.39l.29-1.33c.36.17.85.31,1.48.43.62.12,1.25.18,1.88.18,1.38,0,2.39-.27,3.01-.8.62-.53.94-1.45.94-2.74v-.77ZM320.56,91.9c-.26-.08-.59-.15-.99-.21-.41-.07-.99-.1-1.74-.1-.63,0-1.19.11-1.68.33-.49.22-.91.53-1.25.93-.35.4-.61.87-.79,1.42-.18.55-.27,1.16-.27,1.82,0,.77.1,1.43.32,1.98.21.55.49,1,.82,1.34s.73.6,1.16.76c.44.16.88.24,1.33.24.66,0,1.27-.1,1.82-.29.55-.2.97-.42,1.28-.68v-7.52Z"/>
  <path class="st2" d="M326.46,94.9h5.1v1.42h-5.1v-1.42Z"/>
  <path class="st2" d="M342.79,96.3c0-1.02.15-1.91.44-2.67.29-.76.68-1.4,1.15-1.91.47-.51,1.02-.89,1.63-1.14.61-.25,1.24-.37,1.88-.37,1.43,0,2.57.47,3.42,1.4.85.93,1.28,2.37,1.28,4.31,0,.12,0,.24-.01.36,0,.12-.02.23-.03.34h-8.19c.05,1.43.4,2.53,1.06,3.29.66.77,1.71,1.15,3.16,1.15.8,0,1.43-.08,1.9-.23s.8-.28,1.02-.38l.27,1.26c-.21.12-.61.26-1.18.43-.58.17-1.26.25-2.04.25-1.02,0-1.9-.15-2.62-.45-.72-.3-1.32-.72-1.78-1.26-.47-.54-.81-1.18-1.02-1.93-.21-.75-.32-1.56-.32-2.45ZM351.07,95.37c-.03-1.22-.32-2.17-.86-2.84s-1.31-1.02-2.3-1.02c-.53,0-1,.11-1.41.32-.41.21-.78.49-1.08.85-.31.35-.55.76-.72,1.23-.17.47-.27.96-.3,1.47h6.68ZM350.98,85.85l-3.86,3.14-.74-.86,3.57-3.43,1.04,1.15Z"/>
  <path class="st2" d="M359.38,101.1c.84,0,1.54-.14,2.09-.42.55-.28.82-.75.82-1.41,0-.32-.05-.59-.15-.81-.1-.23-.26-.43-.49-.61s-.52-.35-.89-.52c-.37-.17-.82-.36-1.37-.59-.44-.18-.85-.36-1.24-.55s-.74-.41-1.04-.65c-.3-.25-.54-.55-.72-.89s-.27-.77-.27-1.26c0-.95.36-1.72,1.07-2.3.71-.59,1.7-.88,2.95-.88.8,0,1.46.07,1.97.2.52.14.88.26,1.09.36l-.34,1.31c-.18-.09-.49-.21-.91-.36-.43-.15-1.06-.23-1.88-.23-.33,0-.64.03-.94.1-.29.07-.55.17-.78.32-.23.14-.41.32-.54.54s-.2.49-.2.8.06.59.18.81.3.43.53.6c.23.17.52.33.86.48.34.15.73.31,1.16.49.45.18.88.36,1.3.55.41.19.78.41,1.09.68.32.26.57.58.77.95.19.37.29.83.29,1.39,0,1.05-.39,1.85-1.18,2.39-.79.54-1.87.81-3.24.81-1.02,0-1.81-.09-2.35-.26s-.9-.31-1.08-.4l.38-1.33s.14.08.29.15c.15.07.35.14.61.23.26.08.56.15.91.21.35.06.76.09,1.23.09Z"/>
  <path class="st2" d="M374.45,106.36c-.17,0-.37-.02-.62-.07-.25-.05-.43-.1-.55-.16l.2-1.2c.11.03.25.06.43.09s.35.05.52.05c.89,0,1.48-.25,1.77-.74.29-.5.44-1.24.44-2.23v-11.62h1.47v11.55c0,1.47-.28,2.57-.83,3.27-.56.71-1.5,1.06-2.82,1.06ZM378.45,86.95c0,.35-.11.62-.32.82-.21.2-.47.3-.77.3s-.56-.1-.77-.3c-.21-.2-.32-.48-.32-.82s.1-.62.32-.82c.21-.2.47-.3.77-.3s.56.1.77.3c.21.2.32.48.32.82Z"/>
  <path class="st2" d="M393.81,96.32c0,.92-.13,1.75-.4,2.51-.26.75-.63,1.39-1.11,1.92-.47.53-1.03.94-1.68,1.23-.65.29-1.36.44-2.14.44s-1.5-.15-2.14-.44c-.65-.29-1.21-.7-1.68-1.23s-.84-1.17-1.11-1.92-.39-1.59-.39-2.51.13-1.75.39-2.51c.26-.75.63-1.4,1.11-1.93.47-.53,1.03-.95,1.68-1.24.65-.29,1.36-.44,2.14-.44s1.5.15,2.14.44c.65.29,1.21.71,1.68,1.24.47.53.84,1.18,1.11,1.93.26.75.4,1.59.4,2.51ZM392.25,96.32c0-1.46-.34-2.62-1.02-3.49s-1.59-1.3-2.75-1.3-2.08.43-2.75,1.3c-.68.87-1.02,2.03-1.02,3.49s.34,2.62,1.02,3.48c.68.86,1.59,1.29,2.75,1.29s2.08-.43,2.75-1.29c.68-.86,1.02-2.02,1.02-3.48ZM391.59,85.85l-3.86,3.14-.74-.86,3.57-3.43,1.04,1.15Z"/>
  <path class="st2" d="M404.99,100.79c-.09.08-.23.16-.41.26-.18.1-.4.2-.67.3-.26.11-.56.19-.9.26-.34.07-.72.1-1.14.1-.68,0-1.33-.1-1.96-.32-.63-.21-1.18-.54-1.66-.99-.47-.45-.85-1.03-1.14-1.75-.29-.71-.43-1.58-.43-2.61,0-.83.13-1.59.38-2.3.26-.71.62-1.32,1.09-1.84.47-.52,1.05-.93,1.74-1.22.68-.29,1.46-.44,2.31-.44,1.08,0,1.95.07,2.61.21s1.19.28,1.61.42v10.65c0,1.75-.45,2.99-1.35,3.74-.9.75-2.26,1.12-4.08,1.12-.75,0-1.43-.06-2.04-.17-.61-.11-1.13-.24-1.57-.39l.29-1.33c.36.17.85.31,1.48.43.62.12,1.25.18,1.88.18,1.38,0,2.39-.27,3.01-.8.62-.53.94-1.45.94-2.74v-.77ZM404.97,91.9c-.26-.08-.59-.15-.99-.21-.41-.07-.99-.1-1.74-.1-.63,0-1.19.11-1.68.33-.49.22-.91.53-1.25.93-.35.4-.61.87-.79,1.42-.18.55-.27,1.16-.27,1.82,0,.77.1,1.43.32,1.98.21.55.48,1,.82,1.34.34.35.73.6,1.16.76.44.16.88.24,1.33.24.66,0,1.27-.1,1.82-.29.55-.2.97-.42,1.28-.68v-7.52Z"/>
  <path class="st2" d="M416.45,90.2c.77,0,1.42.11,1.95.33.53.22.97.52,1.3.9.33.38.57.84.72,1.37.15.53.23,1.1.23,1.72v7.36c-.15.05-.37.09-.65.15s-.62.11-.99.17-.79.11-1.25.15c-.46.04-.93.06-1.41.06-.62,0-1.18-.07-1.7-.2-.52-.14-.97-.35-1.35-.64-.38-.29-.68-.67-.9-1.13-.22-.46-.33-1.02-.33-1.68s.12-1.17.36-1.62.58-.82,1.02-1.12c.44-.29.95-.51,1.56-.64s1.26-.2,1.96-.2c.21,0,.43.01.67.03.23.02.46.05.68.09.22.04.41.08.56.11.16.04.27.07.33.1v-.72c0-.41-.03-.8-.09-1.18-.06-.38-.19-.73-.39-1.04-.2-.31-.49-.56-.86-.75-.37-.19-.85-.28-1.46-.28-.86,0-1.5.06-1.92.18s-.73.22-.93.29l-.2-1.29c.26-.12.65-.23,1.18-.34.53-.11,1.18-.16,1.93-.16ZM416.59,101.08c.57,0,1.07-.02,1.5-.06.43-.04.79-.09,1.09-.15v-4.11c-.17-.08-.43-.15-.79-.24-.36-.08-.86-.12-1.49-.12-.36,0-.74.03-1.13.08-.39.05-.75.17-1.08.34-.33.17-.6.41-.81.71-.21.3-.32.7-.32,1.2,0,.44.07.81.21,1.11.14.3.35.54.61.72.26.18.58.31.95.39.37.08.79.12,1.25.12Z"/>
  <path class="st2" d="M428.46,95.79c.53.37,1.07.81,1.61,1.3s1.08,1.02,1.6,1.59c.53.57,1.02,1.16,1.49,1.76s.86,1.17,1.19,1.7h-1.76c-.35-.59-.76-1.17-1.23-1.75s-.96-1.11-1.47-1.61-1.02-.96-1.54-1.38c-.51-.41-.97-.73-1.36-.93v5.67h-1.47v-17.24l1.47-.27v10.87c.31-.27.7-.64,1.17-1.1s.95-.93,1.43-1.4c.49-.47.94-.92,1.38-1.36.43-.44.79-.83,1.09-1.16h1.79c-.35.36-.74.76-1.19,1.2-.45.44-.91.9-1.4,1.38-.48.48-.96.95-1.43,1.41-.47.46-.93.9-1.37,1.32Z"/>
  <path class="st2" d="M448.1,96.32c0,.92-.13,1.75-.39,2.51-.26.75-.63,1.39-1.11,1.92-.47.53-1.03.94-1.68,1.23-.65.29-1.36.44-2.14.44s-1.5-.15-2.14-.44c-.65-.29-1.21-.7-1.68-1.23-.47-.53-.84-1.17-1.11-1.92-.26-.75-.4-1.59-.4-2.51s.13-1.75.4-2.51c.26-.75.63-1.4,1.11-1.93.47-.53,1.03-.95,1.68-1.24.65-.29,1.36-.44,2.14-.44s1.5.15,2.14.44c.65.29,1.21.71,1.68,1.24.47.53.84,1.18,1.11,1.93.26.75.39,1.59.39,2.51ZM446.55,96.32c0-1.46-.34-2.62-1.02-3.49s-1.6-1.3-2.75-1.3-2.08.43-2.75,1.3-1.02,2.03-1.02,3.49.34,2.62,1.02,3.48c.68.86,1.59,1.29,2.75,1.29s2.08-.43,2.75-1.29c.68-.86,1.02-2.02,1.02-3.48ZM441.88,86.95c0,.33-.1.59-.29.79-.2.2-.44.29-.75.29s-.55-.1-.75-.29-.29-.46-.29-.79.1-.59.29-.79c.2-.19.44-.29.75-.29s.55.1.75.29c.19.2.29.46.29.79ZM445.76,86.95c0,.33-.1.59-.29.79s-.44.29-.74.29-.55-.1-.75-.29-.29-.46-.29-.79.1-.59.29-.79c.2-.19.44-.29.75-.29s.55.1.74.29c.2.2.29.46.29.79Z"/>
  <path class="st2" d="M459.46,91.67c-.35.39-.81.93-1.36,1.62-.56.69-1.15,1.46-1.78,2.32-.63.85-1.26,1.74-1.87,2.66-.62.93-1.16,1.8-1.63,2.63h6.85v1.24h-8.53v-1.06c.39-.74.87-1.55,1.45-2.44.58-.89,1.17-1.77,1.8-2.63.62-.86,1.23-1.67,1.82-2.43.59-.76,1.09-1.38,1.48-1.87h-6.21v-1.24h7.99v1.2Z"/>
  <path class="st2" d="M465.08,106.32h-1.47v-15.44c.44-.15.99-.29,1.67-.43s1.54-.2,2.57-.2c.86,0,1.64.14,2.34.42.7.28,1.3.68,1.81,1.21.5.53.89,1.17,1.17,1.92.28.75.42,1.6.42,2.55,0,.89-.12,1.7-.35,2.45-.23.74-.58,1.38-1.03,1.92-.45.53-1,.95-1.66,1.25-.65.3-1.4.45-2.25.45-.77,0-1.43-.11-2-.33-.56-.22-.97-.42-1.23-.62v4.85ZM465.08,100.04c.14.11.3.22.51.34.2.12.44.23.71.34.27.11.56.19.88.26.32.07.65.1.99.1.72,0,1.33-.12,1.82-.37.49-.25.88-.59,1.18-1.02.3-.43.52-.93.65-1.51.14-.58.2-1.19.2-1.84,0-1.54-.38-2.71-1.15-3.53-.77-.82-1.78-1.23-3.05-1.23-.72,0-1.31.03-1.75.1-.44.07-.78.14-1,.21v8.15Z"/>
  <path class="st2" d="M487.85,96.32c0,.92-.13,1.75-.4,2.51-.26.75-.63,1.39-1.11,1.92-.47.53-1.03.94-1.68,1.23-.65.29-1.36.44-2.14.44s-1.5-.15-2.14-.44c-.65-.29-1.21-.7-1.68-1.23s-.84-1.17-1.11-1.92-.39-1.59-.39-2.51.13-1.75.39-2.51c.26-.75.63-1.4,1.11-1.93.47-.53,1.03-.95,1.68-1.24.65-.29,1.36-.44,2.14-.44s1.5.15,2.14.44c.65.29,1.21.71,1.68,1.24.47.53.84,1.18,1.11,1.93.26.75.4,1.59.4,2.51ZM486.29,96.32c0-1.46-.34-2.62-1.02-3.49s-1.59-1.3-2.75-1.3-2.08.43-2.75,1.3c-.68.87-1.02,2.03-1.02,3.49s.34,2.62,1.02,3.48c.68.86,1.59,1.29,2.75,1.29s2.08-.43,2.75-1.29c.68-.86,1.02-2.02,1.02-3.48Z"/>
  <path class="st2" d="M492.16,90.88c.44-.12,1.02-.26,1.76-.41s1.64-.23,2.71-.23c.89,0,1.63.13,2.22.38.59.26,1.07.62,1.42,1.09.35.47.61,1.04.76,1.7.15.66.23,1.39.23,2.19v6.52h-1.47v-6.05c0-.83-.06-1.53-.17-2.1-.11-.57-.3-1.04-.56-1.4-.26-.36-.61-.62-1.04-.78-.43-.16-.97-.24-1.61-.24-.69,0-1.29.04-1.79.11-.5.08-.83.14-.98.2v10.25h-1.47v-11.26Z"/>
  <path class="st2" d="M507.5,90.47h4.65v1.24h-4.65v6.21c0,.66.06,1.2.17,1.61.11.41.27.73.48.96s.47.38.77.45c.3.08.63.11.99.11.62,0,1.11-.07,1.49-.21.38-.14.67-.27.88-.4l.36,1.22c-.21.14-.58.29-1.11.46s-1.1.26-1.71.26c-.72,0-1.33-.09-1.82-.28-.49-.19-.88-.47-1.17-.86-.29-.38-.5-.86-.62-1.43-.12-.57-.18-1.25-.18-2.03v-10.74l1.47-.27v3.7Z"/>
  <circle class="st6" cx="67.55" cy="22.32" r="3.32"/>
  <circle class="st6" cx="35.57" cy="34.24" r="2.98"/>
  <circle class="st6" cx="99.2" cy="34.24" r="2.98"/>
  <path class="st5" d="M135.31,73.29s-12.96,41.64-61.92,39.5c15.51-4.29,24.96-13.55,30.71-23.7,2.97-5.25,4.95-10.74,6.27-15.89,13.81-1.6,24.94.09,24.94.09Z"/>
  <path class="st1" d="M106.18,73.77c-1.3,6.1-3.61,12.4-7.52,18.07-4.95,7.17-12.48,13.33-23.79,16.82,2.57-2.7,4.75-5.41,6.57-8.11,4.53-6.7,6.89-13.36,7.78-19.72.11-.83.2-1.65.27-2.46.03-.34.05-.69.07-1.03.36-6.17-.6-12.02-2.23-17.3-.31-1.03-.66-2.03-1.02-3.01,9.57-9,20.09-12.38,20.09-12.38,0,0,.51,2.38.89,6.23.16,1.6.29,3.46.35,5.5.15,4.97-.11,11.08-1.46,17.39Z"/>
  <path class="st0" d="M84.63,80.63c-.52,3.3-1.44,6.68-2.86,10.1-1.94,4.66-4.8,9.4-8.82,14.12-.2.23-.39.46-.59.69-.07.08-.14.16-.22.24-.85.97-1.75,1.93-2.71,2.9-.57.58-1.16,1.16-1.77,1.74-.14-.13-.29-.27-.42-.4-.52-.5-1.02-.99-1.51-1.5h0c-.89-.91-1.74-1.82-2.54-2.73-.27-.31-.54-.61-.8-.92-30.29-35.6,5.28-71.86,5.28-71.86,0,0,1.05,1.07,2.64,3.03.56.69,1.18,1.48,1.84,2.37,3.57,4.8,8.39,12.48,11.05,21.82.22.77.43,1.55.62,2.34,1.32,5.58,1.82,11.68.82,18.06Z"/>
  <path class="st4" d="M0,73.29s12.96,41.64,61.92,39.5c-15.51-4.29-24.96-13.55-30.71-23.7-2.97-5.25-4.95-10.74-6.27-15.89C11.13,71.59,0,73.29,0,73.29Z"/>
  <path class="st3" d="M29.13,73.77c1.3,6.1,3.61,12.4,7.52,18.07,4.95,7.17,12.48,13.33,23.79,16.82-2.57-2.7-4.75-5.41-6.57-8.11-4.53-6.7-6.89-13.36-7.78-19.72-.11-.83-.2-1.65-.27-2.46-.03-.34-.05-.69-.07-1.03-.36-6.17.6-12.02,2.23-17.3.31-1.03.66-2.03,1.02-3.01-9.57-9-20.09-12.38-20.09-12.38,0,0-.51,2.38-.89,6.23-.16,1.6-.29,3.46-.35,5.5-.15,4.97.11,11.08,1.46,17.39Z"/>
</svg>